<svg width="64" height="65" viewBox="0 0 64 65" fill="none" xmlns="http://www.w3.org/2000/svg">
<rect y="1" width="64" height="64" rx="10" fill="white"/>
<path d="M26 33.812L26.3929 30.3571H34.5205C36.7487 30.3571 38.7382 30.8169 40.4889 31.7363C42.229 32.6465 43.6031 33.9328 44.6111 35.5953C45.6084 37.2577 46.1071 39.2081 46.1071 41.4464C46.1071 43.6847 45.6084 45.6351 44.6111 47.2975C43.6031 48.96 42.229 50.251 40.4889 51.1705C38.7382 52.0806 36.7487 52.5357 34.5205 52.5357H26.3929V49.0808H34.2022C35.7938 49.0808 37.2102 48.7743 38.4517 48.1614C39.6826 47.5484 40.6533 46.6753 41.3643 45.5422C42.0646 44.3999 42.4147 43.0346 42.4147 41.4464C42.4147 39.8583 42.0646 38.493 41.3643 37.3506C40.6533 36.2083 39.6826 35.3353 38.4517 34.7315C37.2102 34.1185 35.7938 33.812 34.2022 33.812H26Z" fill="black"/>
<path d="M26.5 14.4271V13L26 11H32.5963C34.4047 11 36.0194 11.456 37.4403 12.3681C38.8525 13.2709 39.9677 14.5469 40.7858 16.196C41.5953 17.845 42 19.7797 42 22C42 24.2203 41.5953 26.1549 40.7858 27.804C39.9677 29.4531 38.8525 30.7337 37.4403 31.6458C36.0194 32.5486 34.4047 33 32.5963 33L26.5 32L26 29.5729H32.338C33.6297 29.5729 34.7793 29.2689 35.7869 28.6609C36.7858 28.0528 37.5737 27.1868 38.1507 26.0628C38.7191 24.9297 39.0033 23.5754 39.0033 22C39.0033 20.4246 38.7191 19.0703 38.1507 17.9372C37.5737 16.804 36.7858 15.938 35.7869 15.3391C34.7793 14.7311 33.6297 14.4271 32.338 14.4271H26.5Z" fill="black"/>
<path d="M25 28V16L23 16.5L21 16V28L23 27.5L25 28Z" fill="black"/>
<path d="M25 47V34L23 34.5L21 34V47L23 46.5L25 47Z" fill="black"/>
<path d="M26.7143 31.1786C26.7143 33.1707 25.0993 34.7857 23.1071 34.7857C21.115 34.7857 19.5 33.1707 19.5 31.1786C19.5 29.1864 21.115 27.5714 23.1071 27.5714C25.0993 27.5714 26.7143 29.1864 26.7143 31.1786Z" fill="white" stroke="black"/>
<path d="M26.7143 50.0714C26.7143 52.0636 25.0993 53.6786 23.1071 53.6786C21.115 53.6786 19.5 52.0636 19.5 50.0714C19.5 48.0793 21.115 46.4643 23.1071 46.4643C25.0993 46.4643 26.7143 48.0793 26.7143 50.0714Z" fill="white" stroke="black"/>
<path d="M26.7143 13.1071C26.7143 15.0993 25.0993 16.7143 23.1071 16.7143C21.115 16.7143 19.5 15.0993 19.5 13.1071C19.5 11.115 21.115 9.5 23.1071 9.5C25.0993 9.5 26.7143 11.115 26.7143 13.1071Z" fill="white" stroke="black"/>
</svg>
