<svg version="1.1" xmlns="http://www.w3.org/2000/svg" viewBox="0 0 584.7545776367188 879.43408203125" width="584.7545776367188" height="879.43408203125">
  <!-- svg-source:excalidraw -->
  
  <defs>
    <style class="style-fonts">
      @font-face {
        font-family: "Virgil";
        src: url("https://excalidraw.com/Virgil.woff2");
      }
      @font-face {
        font-family: "Cascadia";
        src: url("https://excalidraw.com/Cascadia.woff2");
      }
      @font-face {
        font-family: "Assistant";
        src: url("https://excalidraw.com/Assistant-Regular.woff2");
      }
    </style>
    
  </defs>
  <g stroke-linecap="round" transform="translate(16.4285888671875 199.6904296875) rotate(0 65.97235107421875 42.42236328125)"><path d="M21.21 0 C45.07 3.44, 76.94 -0.77, 110.73 0 C122.68 -1.96, 129.68 7.92, 131.94 21.21 C128.48 32.29, 132.79 41.24, 131.94 63.63 C134.28 75.55, 126.09 82.22, 110.73 84.84 C86.98 80.5, 68.88 83.84, 21.21 84.84 C9.99 81.61, -2.72 80.46, 0 63.63 C-2.14 52.52, 0.23 46.02, 0 21.21 C2.71 5.72, 10.51 -0.21, 21.21 0" stroke="none" stroke-width="0" fill="#a5d8ff"></path><path d="M21.21 0 C41.69 1.27, 66.2 1.06, 110.73 0 M21.21 0 C54.65 1.04, 86.1 0.65, 110.73 0 M110.73 0 C124.18 0.75, 131.83 6.39, 131.94 21.21 M110.73 0 C124.47 0.44, 130.04 7.48, 131.94 21.21 M131.94 21.21 C133.18 29.13, 133.33 39.98, 131.94 63.63 M131.94 21.21 C132.43 29.94, 133.16 41.46, 131.94 63.63 M131.94 63.63 C131.04 78.35, 125.94 84.72, 110.73 84.84 M131.94 63.63 C133.93 77.93, 123.96 85.08, 110.73 84.84 M110.73 84.84 C75.12 87.25, 40.3 86.53, 21.21 84.84 M110.73 84.84 C84.17 84.94, 57.26 86.1, 21.21 84.84 M21.21 84.84 C6.41 86.79, 1.74 77.12, 0 63.63 M21.21 84.84 C5.09 83.9, -1.59 77.26, 0 63.63 M0 63.63 C-0.53 48.33, -0.28 28.42, 0 21.21 M0 63.63 C-0.69 46.97, 0.2 30.78, 0 21.21 M0 21.21 C1.01 7.02, 7.41 1.67, 21.21 0 M0 21.21 C1.86 6.92, 6.07 0.95, 21.21 0" stroke="#4dabf7" stroke-width="2" fill="none"></path></g><g transform="translate(42.71098327636719 229.61279296875) rotate(0 39.68995666503906 12.5)"><text x="39.68995666503906" y="0" font-family="Virgil, Segoe UI Emoji" font-size="20px" fill="#1e1e1e" text-anchor="middle" style="white-space: pre;" direction="ltr" dominant-baseline="text-before-edge">Created</text></g><g stroke-linecap="round" transform="translate(11.9617919921875 412.5517578125) rotate(0 65.97235107421875 42.42236328125)"><path d="M21.21 0 C46.96 1.92, 80.46 -2.89, 110.73 0 C121.85 -1.72, 134.96 6.31, 131.94 21.21 C132.63 32.23, 130.7 40.67, 131.94 63.63 C131.85 78.06, 124.56 86.7, 110.73 84.84 C75.98 84.13, 48.05 85.66, 21.21 84.84 C4.63 87.46, 1.62 78.23, 0 63.63 C-3.07 49.46, -3.27 29.98, 0 21.21 C2.96 6.46, 7.17 -0.65, 21.21 0" stroke="none" stroke-width="0" fill="#b2f2bb"></path><path d="M21.21 0 C41.54 0.96, 63.49 0.58, 110.73 0 M21.21 0 C52.61 -0.52, 84.2 -0.68, 110.73 0 M110.73 0 C125.55 -1.46, 130.79 7.07, 131.94 21.21 M110.73 0 C123.02 -1.31, 130 8.07, 131.94 21.21 M131.94 21.21 C130.78 35.77, 130.75 47.36, 131.94 63.63 M131.94 21.21 C131.76 30.14, 132.45 37.95, 131.94 63.63 M131.94 63.63 C133.86 77.66, 124.76 85.63, 110.73 84.84 M131.94 63.63 C131.53 78.74, 126.25 84.36, 110.73 84.84 M110.73 84.84 C92.09 84.3, 72.18 83.89, 21.21 84.84 M110.73 84.84 C89.75 86.03, 66.65 85.4, 21.21 84.84 M21.21 84.84 C8.7 86.22, 0.9 78.47, 0 63.63 M21.21 84.84 C6.15 86.01, -1.49 78.39, 0 63.63 M0 63.63 C1.32 51.78, -1.76 41.48, 0 21.21 M0 63.63 C-0.58 49.18, 0.6 32.92, 0 21.21 M0 21.21 C0.12 8.54, 8.36 -0.63, 21.21 0 M0 21.21 C-0.04 9.2, 8.89 -1.56, 21.21 0" stroke="#4dabf7" stroke-width="2" fill="none"></path></g><g transform="translate(37.574180603027344 442.47412109375) rotate(0 40.359962463378906 12.5)"><text x="40.359962463378906" y="0" font-family="Virgil, Segoe UI Emoji" font-size="20px" fill="#1e1e1e" text-anchor="middle" style="white-space: pre;" direction="ltr" dominant-baseline="text-before-edge">Mounted</text></g><g stroke-linecap="round" transform="translate(15.43988037109375 631.063232421875) rotate(0 65.97235107421875 42.42236328125)"><path d="M21.21 0 C52.57 -1.73, 88.66 1.26, 110.73 0 C126.77 -3.37, 133.32 8.68, 131.94 21.21 C130.02 31.58, 132.16 37.75, 131.94 63.63 C128.89 74.9, 122.35 86.31, 110.73 84.84 C91.25 85.97, 70.38 80.68, 21.21 84.84 C7.19 85.69, -0.93 79.8, 0 63.63 C-0.88 48.19, 1.65 37.77, 0 21.21 C1.48 9.44, 4.64 0.7, 21.21 0" stroke="none" stroke-width="0" fill="#ffc9c9"></path><path d="M21.21 0 C46.45 1.73, 73.23 0.42, 110.73 0 M21.21 0 C48.11 1.03, 75.49 -0.08, 110.73 0 M110.73 0 C126.04 1.26, 130.79 8.61, 131.94 21.21 M110.73 0 C126.77 1.33, 132.19 7.31, 131.94 21.21 M131.94 21.21 C130.42 33.26, 130.6 44.36, 131.94 63.63 M131.94 21.21 C131.89 34.95, 132.5 47.93, 131.94 63.63 M131.94 63.63 C133.86 77.22, 125.02 83.82, 110.73 84.84 M131.94 63.63 C131.7 79.75, 125.45 86.65, 110.73 84.84 M110.73 84.84 C83.05 83.94, 59.78 83.98, 21.21 84.84 M110.73 84.84 C78.88 85.88, 47.8 85.54, 21.21 84.84 M21.21 84.84 C5.64 85.39, 1.47 79.45, 0 63.63 M21.21 84.84 C5.82 87.14, 0.81 75.53, 0 63.63 M0 63.63 C-1.14 45.24, 0.23 31.56, 0 21.21 M0 63.63 C-0.16 46.38, -0.11 30.09, 0 21.21 M0 21.21 C0.29 7.21, 6.17 -1.57, 21.21 0 M0 21.21 C-1.39 8.89, 7.58 1.98, 21.21 0" stroke="#4dabf7" stroke-width="2" fill="none"></path></g><g transform="translate(30.572280883789062 660.985595703125) rotate(0 50.83995056152344 12.5)"><text x="50.83995056152344" y="0" font-family="Virgil, Segoe UI Emoji" font-size="20px" fill="#1e1e1e" text-anchor="middle" style="white-space: pre;" direction="ltr" dominant-baseline="text-before-edge">Unmounted</text></g><g stroke-linecap="round"><g transform="translate(76.9735714025851 289.537353515625) rotate(0 0.7272040040489287 59.33056640625)"><path d="M-0.41 -0.75 C-0.36 18.86, 0.08 98.19, 0.41 117.98 M1.58 1.46 C1.97 21.2, 2.69 99.57, 2.57 119.16" stroke="#4dabf7" stroke-width="2" fill="none"></path></g><g transform="translate(76.9735714025851 289.537353515625) rotate(0 0.7272040040489287 59.33056640625)"><path d="M-6.05 95.69 C-4.54 101.35, -1.72 110.67, 2.57 119.16 M-6.05 95.69 C-4.46 101.01, -0.72 108.11, 2.57 119.16" stroke="#4dabf7" stroke-width="2" fill="none"></path></g><g transform="translate(76.9735714025851 289.537353515625) rotate(0 0.7272040040489287 59.33056640625)"><path d="M11.06 95.64 C7.19 101.26, 4.65 110.6, 2.57 119.16 M11.06 95.64 C8.44 101.02, 7.97 108.13, 2.57 119.16" stroke="#4dabf7" stroke-width="2" fill="none"></path></g></g><mask></mask><g stroke-linecap="round"><g transform="translate(78.98586393033167 503.944580078125) rotate(0 0.06816360652356934 61.6064453125)"><path d="M-0.16 0.12 C-0.21 20.71, -0.96 103.64, -1.02 124.33 M-1.71 -0.86 C-1.34 19.35, 1.07 102.24, 1.08 122.79" stroke="#4dabf7" stroke-width="2" fill="none"></path></g><g transform="translate(78.98586393033167 503.944580078125) rotate(0 0.06816360652356934 61.6064453125)"><path d="M-7.86 99.45 C-5.37 103.09, -1.58 109.45, 1.08 122.79 M-7.86 99.45 C-3.5 107.7, -1.69 116.66, 1.08 122.79" stroke="#4dabf7" stroke-width="2" fill="none"></path></g><g transform="translate(78.98586393033167 503.944580078125) rotate(0 0.06816360652356934 61.6064453125)"><path d="M9.24 99.16 C7.66 102.85, 7.37 109.28, 1.08 122.79 M9.24 99.16 C6.97 107.68, 2.14 116.76, 1.08 122.79" stroke="#4dabf7" stroke-width="2" fill="none"></path></g></g><mask></mask><g transform="translate(179.75531005859375 433.83935546875) rotate(0 -12.477386474609375 19.476806640625)" stroke="none"><path fill="#4dabf7" d="M 1.47,1.49 Q 1.47,1.49 -0.02,2.87 -1.53,4.24 -3.81,6.23 -6.09,8.22 -7.97,10.13 -9.86,12.03 -11.17,13.61 -12.48,15.19 -13.20,16.41 -13.92,17.62 -14.88,18.62 -15.84,19.62 -17.12,20.59 -18.40,21.55 -19.70,22.47 -21.00,23.39 -19.64,24.38 -18.27,25.38 -16.81,26.33 -15.36,27.28 -13.96,28.22 -12.55,29.17 -10.56,29.81 -8.56,30.46 -7.54,30.94 -6.52,31.42 -4.39,32.59 -2.27,33.76 -0.24,34.95 1.77,36.15 2.15,36.41 2.53,36.67 2.80,37.04 3.08,37.42 3.22,37.86 3.36,38.29 3.35,38.76 3.35,39.22 3.19,39.65 3.04,40.09 2.75,40.45 2.47,40.81 2.08,41.07 1.70,41.32 1.25,41.44 0.81,41.56 0.35,41.52 -0.10,41.49 -0.53,41.32 -0.96,41.14 -1.30,40.84 -1.65,40.53 -1.88,40.13 -2.12,39.73 -2.21,39.28 -2.30,38.83 -2.24,38.37 -2.19,37.92 -1.99,37.50 -1.79,37.08 -1.47,36.75 -1.15,36.42 -0.73,36.21 -0.32,36.00 0.12,35.93 0.58,35.87 1.03,35.95 1.49,36.03 1.89,36.25 2.30,36.47 2.61,36.81 2.92,37.15 3.11,37.57 3.30,37.99 3.34,38.45 3.38,38.91 3.28,39.36 3.17,39.81 2.93,40.20 2.69,40.59 2.33,40.89 1.97,41.18 1.54,41.34 1.11,41.51 0.65,41.53 0.19,41.55 -0.24,41.42 -0.69,41.29 -0.69,41.29 -0.69,41.29 -3.25,39.69 -5.81,38.08 -6.67,37.38 -7.53,36.68 -9.00,35.99 -10.47,35.30 -11.40,34.65 -12.32,33.99 -13.64,33.43 -14.96,32.88 -16.36,31.98 -17.76,31.08 -19.19,30.21 -20.61,29.34 -22.31,28.36 -24.01,27.38 -25.08,25.03 -26.16,22.67 -24.74,21.33 -23.32,19.99 -22.02,19.14 -20.72,18.28 -18.74,16.97 -16.77,15.66 -15.84,14.45 -14.92,13.24 -13.58,11.51 -12.25,9.77 -10.37,7.69 -8.49,5.62 -6.37,3.55 -4.26,1.49 -2.87,-0.00 -1.47,-1.49 -1.27,-1.64 -1.07,-1.80 -0.84,-1.90 -0.61,-2.00 -0.36,-2.05 -0.11,-2.09 0.13,-2.08 0.38,-2.06 0.63,-1.98 0.87,-1.91 1.08,-1.77 1.30,-1.64 1.48,-1.46 1.66,-1.28 1.79,-1.06 1.92,-0.85 1.99,-0.60 2.06,-0.36 2.08,-0.11 2.09,0.13 2.04,0.38 2.00,0.63 1.89,0.86 1.79,1.09 1.63,1.29 1.47,1.49 1.47,1.49 L 1.47,1.49 Z"></path></g><g transform="translate(99.20098876953125 305.190185546875) rotate(0 224.53973388671875 37.5)"><text x="0" y="0" font-family="Virgil, Segoe UI Emoji" font-size="20px" fill="#2f9e44" text-anchor="start" style="white-space: pre;" direction="ltr" dominant-baseline="text-before-edge">Value is mounted on the matching</text><text x="0" y="25" font-family="Virgil, Segoe UI Emoji" font-size="20px" fill="#2f9e44" text-anchor="start" style="white-space: pre;" direction="ltr" dominant-baseline="text-before-edge">lifecycle in React/Vue or when a subscription </text><text x="0" y="50" font-family="Virgil, Segoe UI Emoji" font-size="20px" fill="#2f9e44" text-anchor="start" style="white-space: pre;" direction="ltr" dominant-baseline="text-before-edge">is started in Vanilla Javascript</text></g><g transform="translate(99.04754638671875 106.608154296875) rotate(0 168.93978881835938 25)"><text x="0" y="0" font-family="Virgil, Segoe UI Emoji" font-size="20px" fill="#2f9e44" text-anchor="start" style="white-space: pre;" direction="ltr" dominant-baseline="text-before-edge">Molecule values are created </text><text x="0" y="25" font-family="Virgil, Segoe UI Emoji" font-size="20px" fill="#2f9e44" text-anchor="start" style="white-space: pre;" direction="ltr" dominant-baseline="text-before-edge">the first time they are requested</text></g><g transform="translate(94.95306396484375 513.98388671875) rotate(0 160.3898162841797 37.5)"><text x="0" y="0" font-family="Virgil, Segoe UI Emoji" font-size="20px" fill="#2f9e44" text-anchor="start" style="white-space: pre;" direction="ltr" dominant-baseline="text-before-edge">Value is unmounted in React/Vue</text><text x="0" y="25" font-family="Virgil, Segoe UI Emoji" font-size="20px" fill="#2f9e44" text-anchor="start" style="white-space: pre;" direction="ltr" dominant-baseline="text-before-edge">lifecycle or subscription stopped</text><text x="0" y="50" font-family="Virgil, Segoe UI Emoji" font-size="20px" fill="#2f9e44" text-anchor="start" style="white-space: pre;" direction="ltr" dominant-baseline="text-before-edge">in Vanilla Javascript</text></g><g transform="translate(82.91552734375 733.4072265625) rotate(0 29.219970703125 12.5)"><text x="58.43994140625" y="0" font-family="Virgil, Segoe UI Emoji" font-size="20px" fill="#2f9e44" text-anchor="end" style="white-space: pre;" direction="ltr" dominant-baseline="text-before-edge">Finally</text></g><g transform="translate(164.69493103027344 210.840576171875) rotate(0 94.81989288330078 12.5)"><text x="189.63978576660156" y="0" font-family="Virgil, Segoe UI Emoji" font-size="20px" fill="#ff8787" text-anchor="end" style="white-space: pre;" direction="ltr" dominant-baseline="text-before-edge">If never subscribed</text></g><g transform="translate(161.47174072265625 250.337646484375) rotate(0 95.48019409179688 10)"><text x="190.96038818359375" y="0" font-family="Virgil, Segoe UI Emoji" font-size="16px" fill="#ff8787" text-anchor="end" style="white-space: pre;" direction="ltr" dominant-baseline="text-before-edge">(e.g. React strict mode)</text></g><g transform="translate(256.4749755859375 665.661865234375) rotate(0 159.13980102539062 50)"><text x="0" y="0" font-family="Virgil, Segoe UI Emoji" font-size="20px" fill="#2f9e44" text-anchor="start" style="white-space: pre;" direction="ltr" dominant-baseline="text-before-edge">Value is remounted when </text><text x="0" y="25" font-family="Virgil, Segoe UI Emoji" font-size="20px" fill="#2f9e44" text-anchor="start" style="white-space: pre;" direction="ltr" dominant-baseline="text-before-edge">re-used by React Strict Mode \</text><text x="0" y="50" font-family="Virgil, Segoe UI Emoji" font-size="20px" fill="#2f9e44" text-anchor="start" style="white-space: pre;" direction="ltr" dominant-baseline="text-before-edge">or when a stopped subscription </text><text x="0" y="75" font-family="Virgil, Segoe UI Emoji" font-size="20px" fill="#2f9e44" text-anchor="start" style="white-space: pre;" direction="ltr" dominant-baseline="text-before-edge">is started in Vanilla Javascript.</text></g><g stroke-linecap="round" transform="translate(10 10) rotate(0 67.32876586914062 36.66906738281249)"><path d="M18.33 0 C41.77 0.9, 72.41 -3.04, 116.32 0 C129.3 -0.99, 132.8 8.5, 134.66 18.33 C134.86 28.39, 136.65 40.82, 134.66 55 C131.49 66.31, 130.8 75.57, 116.32 73.34 C95.85 70.29, 72.28 74.15, 18.33 73.34 C3.56 75.07, 1.43 65.96, 0 55 C3.21 41.47, -0.48 26.13, 0 18.33 C0.1 7.2, 4.65 1.43, 18.33 0" stroke="none" stroke-width="0" fill="#e9ecef"></path><path d="M18.33 0 C42.56 -0.67, 67.23 2.02, 116.32 0 M116.32 0 C128.92 1.13, 135.17 5.46, 134.66 18.33 M134.66 18.33 C133.12 25.27, 134.72 35.84, 134.66 55 M134.66 55 C136.4 69.04, 129.52 73.68, 116.32 73.34 M116.32 73.34 C89.84 71.55, 60.67 71.61, 18.33 73.34 M18.33 73.34 C6.1 74.49, 0.13 66.7, 0 55 M0 55 C1.74 49.4, 0.73 39.24, 0 18.33 M0 18.33 C1.62 7.24, 4.63 1.37, 18.33 0" stroke="#4dabf7" stroke-width="1.5" fill="none" stroke-dasharray="8 9"></path></g><g transform="translate(48.978797912597656 34.1690673828125) rotate(0 28.34996795654297 12.5)"><text x="28.34996795654297" y="0" font-family="Virgil, Segoe UI Emoji" font-size="20px" fill="#1e1e1e" text-anchor="middle" style="white-space: pre;" direction="ltr" dominant-baseline="text-before-edge">Start</text></g><g stroke-linecap="round" transform="translate(11.54583740234375 796.095947265625) rotate(0 67.32876586914062 36.6690673828125)"><path d="M18.33 0 C43.69 -0.2, 61.29 -2.04, 116.32 0 C130.07 3.38, 134.78 9.58, 134.66 18.33 C136.93 28.32, 131.29 35.66, 134.66 55 C132.83 66.38, 127.93 73.35, 116.32 73.34 C87.41 74.75, 61.02 74.21, 18.33 73.34 C3.18 71.55, -2.64 65.4, 0 55 C0.59 40.48, -1.91 27.95, 0 18.33 C1.53 4.6, 5.72 -0.05, 18.33 0" stroke="none" stroke-width="0" fill="#e9ecef"></path><path d="M18.33 0 C55.6 -0.29, 93.7 0.01, 116.32 0 M116.32 0 C128.16 -0.44, 133.85 5.59, 134.66 18.33 M134.66 18.33 C134.36 29.72, 134.6 43.91, 134.66 55 M134.66 55 C134.92 66.2, 127.04 71.36, 116.32 73.34 M116.32 73.34 C95.29 71.1, 72.51 72.22, 18.33 73.34 M18.33 73.34 C6.57 74.59, -0.1 67.54, 0 55 M0 55 C0.42 44.57, 1.14 28.55, 0 18.33 M0 18.33 C-1.48 6.46, 5.48 0.07, 18.33 0" stroke="#4dabf7" stroke-width="1.5" fill="none" stroke-dasharray="8 9"></path></g><g transform="translate(34.33464813232422 807.7650146484375) rotate(0 44.539955139160156 25)"><text x="44.539955139160156" y="0" font-family="Virgil, Segoe UI Emoji" font-size="20px" fill="#1e1e1e" text-anchor="middle" style="white-space: pre;" direction="ltr" dominant-baseline="text-before-edge">Garbage</text><text x="44.539955139160156" y="25" font-family="Virgil, Segoe UI Emoji" font-size="20px" fill="#1e1e1e" text-anchor="middle" style="white-space: pre;" direction="ltr" dominant-baseline="text-before-edge">Collected</text></g><g stroke-linecap="round" transform="translate(395.77484130859375 202.74072265625) rotate(0 67.32876586914062 36.6690673828125)"><path d="M18.33 0 C38.66 -1.61, 60.97 3.58, 116.32 0 C126.92 3.31, 133.11 8.35, 134.66 18.33 C133.09 33.25, 134.26 45, 134.66 55 C132.3 69.44, 126.34 70.06, 116.32 73.34 C91.02 75.06, 70.25 70.25, 18.33 73.34 C9.04 74.15, 1.61 66.83, 0 55 C-1.88 43.6, -0.57 36.07, 0 18.33 C-1.42 9.14, 3.65 0.01, 18.33 0" stroke="none" stroke-width="0" fill="#e9ecef"></path><path d="M18.33 0 C50.45 -2.09, 83.62 -2.47, 116.32 0 M116.32 0 C127.29 -0.31, 132.86 6.25, 134.66 18.33 M134.66 18.33 C135.41 29.28, 135.76 42.58, 134.66 55 M134.66 55 C135.04 66.9, 128.19 72.93, 116.32 73.34 M116.32 73.34 C90.09 75.14, 63 72.51, 18.33 73.34 M18.33 73.34 C4.21 72.18, 1.21 66.81, 0 55 M0 55 C-1.05 39.43, 1.99 27.09, 0 18.33 M0 18.33 C1.43 4.31, 5.34 0.94, 18.33 0" stroke="#4dabf7" stroke-width="1.5" fill="none" stroke-dasharray="8 9"></path></g><g transform="translate(418.5636520385742 214.4097900390625) rotate(0 44.539955139160156 25)"><text x="44.539955139160156" y="0" font-family="Virgil, Segoe UI Emoji" font-size="20px" fill="#1e1e1e" text-anchor="middle" style="white-space: pre;" direction="ltr" dominant-baseline="text-before-edge">Garbage</text><text x="44.539955139160156" y="25" font-family="Virgil, Segoe UI Emoji" font-size="20px" fill="#1e1e1e" text-anchor="middle" style="white-space: pre;" direction="ltr" dominant-baseline="text-before-edge">Collected</text></g><g stroke-linecap="round"><g transform="translate(80.16120349799883 87.07080078125) rotate(0 0.26534239253857095 54.55517578125)"><path d="M-1.1 -0.41 C-1.18 17.62, 0.01 89.64, 0.28 108.03 M0.52 -1.66 C0.2 16.48, -0.67 90.72, -0.79 109" stroke="#4dabf7" stroke-width="2" fill="none"></path></g><g transform="translate(80.16120349799883 87.07080078125) rotate(0 0.26534239253857095 54.55517578125)"><path d="M-9.12 85.43 C-6.82 93.59, -4.94 102.54, -0.79 109 M-9.12 85.43 C-6.32 94.54, -2.22 102.57, -0.79 109" stroke="#4dabf7" stroke-width="2" fill="none"></path></g><g transform="translate(80.16120349799883 87.07080078125) rotate(0 0.26534239253857095 54.55517578125)"><path d="M7.98 85.59 C4.12 93.54, -0.17 102.43, -0.79 109 M7.98 85.59 C4.5 94.74, 2.31 102.71, -0.79 109" stroke="#4dabf7" stroke-width="2" fill="none"></path></g></g><mask></mask><g stroke-linecap="round"><g transform="translate(76.32411706808534 719.770751953125) rotate(0 0.7217941087077975 32.639892578125)"><path d="M0.72 0.77 C0.8 11.68, 0.87 54.29, 1.05 64.89 M-0.36 0.13 C-0.52 11.26, -0.37 55.38, -0.1 66.22" stroke="#4dabf7" stroke-width="2" fill="none"></path></g><g transform="translate(76.32411706808534 719.770751953125) rotate(0 0.7217941087077975 32.639892578125)"><path d="M-8.93 42.84 C-4.69 50.25, -3.56 59.66, -0.1 66.22 M-8.93 42.84 C-7.31 47.92, -5.66 52.68, -0.1 66.22" stroke="#4dabf7" stroke-width="2" fill="none"></path></g><g transform="translate(76.32411706808534 719.770751953125) rotate(0 0.7217941087077975 32.639892578125)"><path d="M8.17 42.63 C6.47 50.22, 1.66 59.7, -0.1 66.22 M8.17 42.63 C5.95 47.87, 3.76 52.68, -0.1 66.22" stroke="#4dabf7" stroke-width="2" fill="none"></path></g></g><mask></mask><g stroke-linecap="round"><g transform="translate(158.47334477477693 240.32378652859632) rotate(0 112.3894376164726 -0.0015693803102294623)"><path d="M-0.24 0.17 C37.6 0.2, 188.35 0.08, 225.85 0.06 M-1.82 -0.78 C36.06 -0.54, 187.83 1.26, 225.46 1.63" stroke="#4dabf7" stroke-width="2" fill="none"></path></g><g transform="translate(158.47334477477693 240.32378652859632) rotate(0 112.3894376164726 -0.0015693803102294623)"><path d="M201.88 9.92 C206.91 10.08, 211.47 6.6, 225.46 1.63 M201.88 9.92 C209.02 7.21, 215.87 5.52, 225.46 1.63" stroke="#4dabf7" stroke-width="2" fill="none"></path></g><g transform="translate(158.47334477477693 240.32378652859632) rotate(0 112.3894376164726 -0.0015693803102294623)"><path d="M202.06 -7.18 C207.05 -3.58, 211.57 -3.63, 225.46 1.63 M202.06 -7.18 C209.15 -4.67, 215.95 -1.14, 225.46 1.63" stroke="#4dabf7" stroke-width="2" fill="none"></path></g></g><mask></mask><g transform="translate(154.9078826904297 665.734619140625) rotate(0 154.70748901367188 -105.11181640625)" stroke="none"><path fill="#4dabf7" d="M 0,-3.12 Q 0,-3.12 7.10,-3.05 14.21,-2.98 21.65,-3.67 29.08,-4.36 36.46,-5.33 43.85,-6.31 49.81,-6.73 55.78,-7.14 61.28,-7.64 66.78,-8.14 72.63,-8.35 78.48,-8.56 86.24,-8.64 93.99,-8.72 102.80,-8.76 111.60,-8.79 120.38,-9.98 129.16,-11.17 138.14,-12.12 147.11,-13.08 155.12,-14.55 163.12,-16.02 169.94,-17.63 176.75,-19.25 181.14,-20.82 185.52,-22.38 189.76,-24.25 193.99,-26.12 199.65,-28.56 205.31,-31.00 211.95,-33.75 218.59,-36.51 225.57,-39.52 232.56,-42.53 238.67,-45.10 244.78,-47.66 248.78,-49.60 252.79,-51.53 255.57,-53.29 258.35,-55.05 260.11,-56.89 261.87,-58.73 264.42,-61.32 266.97,-63.92 270.44,-66.81 273.91,-69.69 277.53,-72.44 281.15,-75.19 284.41,-78.11 287.68,-81.03 290.84,-84.14 294.00,-87.24 297.18,-90.51 300.36,-93.78 301.73,-96.21 303.10,-98.65 303.89,-102.69 304.67,-106.73 304.72,-110.93 304.77,-115.12 303.17,-119.42 301.57,-123.72 300.07,-126.86 298.56,-130.00 296.68,-132.69 294.80,-135.39 292.47,-137.70 290.14,-140.02 287.44,-142.12 284.75,-144.23 281.49,-146.87 278.24,-149.52 274.85,-151.94 271.47,-154.35 268.26,-156.25 265.06,-158.15 261.51,-159.67 257.97,-161.19 254.08,-162.61 250.19,-164.03 245.80,-165.65 241.42,-167.26 237.39,-168.26 233.35,-169.26 228.96,-170.00 224.57,-170.74 220.38,-171.37 216.19,-172.01 212.01,-172.62 207.84,-173.22 203.78,-173.46 199.73,-173.69 193.71,-174.50 187.70,-175.31 181.27,-176.36 174.83,-177.42 169.20,-177.85 163.56,-178.29 158.00,-178.86 152.44,-179.43 147.38,-180.04 142.32,-180.66 137.45,-181.30 132.59,-181.93 127.21,-182.51 121.83,-183.08 115.31,-184.04 108.78,-185.01 102.60,-185.78 96.41,-186.56 89.62,-188.38 82.82,-190.20 78.64,-191.26 74.45,-192.32 71.40,-193.24 68.35,-194.16 63.40,-195.04 58.46,-195.92 55.18,-196.54 51.91,-197.16 47.96,-198.20 44.00,-199.24 40.84,-199.54 37.68,-199.84 35.05,-200.15 32.42,-200.46 29.59,-200.74 26.75,-201.01 22.16,-202.26 17.57,-203.51 14.68,-204.17 11.79,-204.83 9.58,-205.24 7.38,-205.66 6.68,-205.95 5.98,-206.24 5.41,-206.75 4.84,-207.25 4.46,-207.90 4.08,-208.56 3.93,-209.30 3.78,-210.05 3.87,-210.80 3.97,-211.55 4.30,-212.23 4.63,-212.92 5.16,-213.46 5.69,-214.00 6.37,-214.34 7.04,-214.69 7.80,-214.80 8.55,-214.91 9.29,-214.77 10.04,-214.63 10.70,-214.27 11.37,-213.90 11.88,-213.34 12.39,-212.78 12.70,-212.09 13.00,-211.39 13.07,-210.64 13.14,-209.88 12.96,-209.15 12.79,-208.41 12.39,-207.77 11.98,-207.12 11.40,-206.64 10.81,-206.16 10.10,-205.89 9.39,-205.62 8.63,-205.60 7.88,-205.57 7.15,-205.78 6.42,-206.00 5.80,-206.44 5.18,-206.87 4.73,-207.48 4.29,-208.10 4.06,-208.82 3.83,-209.54 3.84,-210.30 3.85,-211.06 4.11,-211.77 4.36,-212.49 4.83,-213.08 5.30,-213.68 5.94,-214.09 6.57,-214.51 7.30,-214.70 8.04,-214.89 8.80,-214.83 9.55,-214.78 9.55,-214.78 9.55,-214.78 11.71,-214.16 13.86,-213.53 16.87,-212.79 19.87,-212.04 24.43,-210.98 28.99,-209.92 31.41,-209.16 33.82,-208.39 36.18,-207.82 38.54,-207.25 42.11,-206.77 45.67,-206.28 49.52,-205.47 53.38,-204.65 57.02,-203.92 60.66,-203.18 63.13,-202.27 65.59,-201.35 68.05,-200.61 70.50,-199.87 73.12,-198.64 75.75,-197.42 79.97,-196.35 84.20,-195.28 90.63,-193.53 97.07,-191.78 103.31,-191.00 109.55,-190.22 115.97,-189.28 122.39,-188.33 127.83,-187.75 133.27,-187.18 138.11,-186.55 142.95,-185.92 147.97,-185.32 152.98,-184.72 158.47,-184.16 163.97,-183.61 169.83,-183.17 175.69,-182.72 182.05,-181.70 188.42,-180.69 194.24,-179.93 200.06,-179.17 204.33,-178.90 208.60,-178.63 212.79,-178.05 216.98,-177.46 221.23,-176.87 225.47,-176.28 230.07,-175.56 234.68,-174.85 239.04,-173.85 243.40,-172.85 247.79,-171.37 252.19,-169.88 256.33,-168.54 260.46,-167.21 264.49,-165.60 268.51,-163.98 271.86,-161.98 275.21,-159.99 278.92,-157.69 282.62,-155.39 286.12,-153.00 289.61,-150.61 292.75,-148.27 295.88,-145.93 298.78,-143.16 301.69,-140.39 304.03,-137.24 306.37,-134.08 308.28,-130.66 310.20,-127.23 311.44,-124.07 312.67,-120.92 313.19,-117.84 313.70,-114.76 313.46,-112.26 313.22,-109.77 312.74,-107.18 312.26,-104.59 311.43,-102.30 310.60,-100.01 309.50,-97.59 308.40,-95.17 306.40,-92.56 304.39,-89.94 301.20,-86.58 298.02,-83.22 294.82,-79.97 291.63,-76.72 288.26,-73.57 284.90,-70.42 281.49,-67.65 278.09,-64.89 274.94,-62.01 271.78,-59.14 269.04,-56.40 266.29,-53.66 263.79,-51.78 261.28,-49.89 258.17,-48.34 255.07,-46.79 250.94,-44.81 246.81,-42.82 240.73,-40.26 234.64,-37.71 227.62,-34.68 220.61,-31.65 214.00,-28.91 207.39,-26.17 201.75,-23.74 196.11,-21.31 191.70,-19.36 187.29,-17.42 182.63,-15.77 177.97,-14.12 171.02,-12.47 164.08,-10.82 155.88,-9.32 147.68,-7.82 138.77,-6.86 129.87,-5.90 120.75,-4.68 111.63,-3.46 102.85,-3.41 94.06,-3.37 86.37,-3.26 78.69,-3.16 72.99,-2.93 67.29,-2.70 61.74,-2.17 56.19,-1.63 50.40,-1.18 44.62,-0.73 37.13,0.32 29.64,1.39 21.93,2.18 14.22,2.98 7.11,3.05 0,3.12 -0.37,3.07 -0.74,3.03 -1.09,2.90 -1.45,2.76 -1.76,2.55 -2.07,2.33 -2.32,2.05 -2.57,1.77 -2.74,1.44 -2.92,1.10 -3.01,0.74 -3.10,0.37 -3.10,-0.00 -3.10,-0.37 -3.01,-0.74 -2.92,-1.10 -2.74,-1.44 -2.57,-1.77 -2.32,-2.05 -2.07,-2.33 -1.76,-2.55 -1.45,-2.76 -1.09,-2.90 -0.74,-3.03 -0.37,-3.07 0.00,-3.12 0.00,-3.12 L 0,-3.12 Z"></path></g></svg>