<svg version="1.1" xmlns="http://www.w3.org/2000/svg" viewBox="0 0 748.5652770996094 671.19091796875" width="748.5652770996094" height="671.19091796875">
  <!-- svg-source:excalidraw -->
  
  <defs>
    <style class="style-fonts">
      @font-face {
        font-family: "Virgil";
        src: url("https://excalidraw.com/Virgil.woff2");
      }
      @font-face {
        font-family: "Cascadia";
        src: url("https://excalidraw.com/Cascadia.woff2");
      }
      @font-face {
        font-family: "Assistant";
        src: url("https://excalidraw.com/Assistant-Regular.woff2");
      }
    </style>
    
  </defs>
  <g stroke-linecap="round" transform="translate(259.33697509765625 143.462890625) rotate(0 65.97235107421875 42.42236328125)"><path d="M21.21 0 C45.07 3.44, 76.94 -0.77, 110.73 0 C122.68 -1.96, 129.68 7.92, 131.94 21.21 C128.48 32.29, 132.79 41.24, 131.94 63.63 C134.28 75.55, 126.09 82.22, 110.73 84.84 C86.98 80.5, 68.88 83.84, 21.21 84.84 C9.99 81.61, -2.72 80.46, 0 63.63 C-2.14 52.52, 0.23 46.02, 0 21.21 C2.71 5.72, 10.51 -0.21, 21.21 0" stroke="none" stroke-width="0" fill="#a5d8ff"></path><path d="M21.21 0 C41.69 1.27, 66.2 1.06, 110.73 0 M21.21 0 C54.65 1.04, 86.1 0.65, 110.73 0 M110.73 0 C124.18 0.75, 131.83 6.39, 131.94 21.21 M110.73 0 C124.47 0.44, 130.04 7.48, 131.94 21.21 M131.94 21.21 C133.18 29.13, 133.33 39.98, 131.94 63.63 M131.94 21.21 C132.43 29.94, 133.16 41.46, 131.94 63.63 M131.94 63.63 C131.04 78.35, 125.94 84.72, 110.73 84.84 M131.94 63.63 C133.93 77.93, 123.96 85.08, 110.73 84.84 M110.73 84.84 C75.12 87.25, 40.3 86.53, 21.21 84.84 M110.73 84.84 C84.17 84.94, 57.26 86.1, 21.21 84.84 M21.21 84.84 C6.41 86.79, 1.74 77.12, 0 63.63 M21.21 84.84 C5.09 83.9, -1.59 77.26, 0 63.63 M0 63.63 C-0.53 48.33, -0.28 28.42, 0 21.21 M0 63.63 C-0.69 46.97, 0.2 30.78, 0 21.21 M0 21.21 C1.01 7.02, 7.41 1.67, 21.21 0 M0 21.21 C1.86 6.92, 6.07 0.95, 21.21 0" stroke="#4dabf7" stroke-width="2" fill="none"></path></g><g transform="translate(285.61936950683594 173.38525390625) rotate(0 39.68995666503906 12.5)"><text x="39.68995666503906" y="0" font-family="Virgil, Segoe UI Emoji" font-size="20px" fill="#1e1e1e" text-anchor="middle" style="white-space: pre;" direction="ltr" dominant-baseline="text-before-edge">Created</text></g><g stroke-linecap="round" transform="translate(258.4647216796875 289.742431640625) rotate(0 65.97235107421875 42.42236328125)"><path d="M21.21 0 C46.96 1.92, 80.46 -2.89, 110.73 0 C121.85 -1.72, 134.96 6.31, 131.94 21.21 C132.63 32.23, 130.7 40.67, 131.94 63.63 C131.85 78.06, 124.56 86.7, 110.73 84.84 C75.98 84.13, 48.05 85.66, 21.21 84.84 C4.63 87.46, 1.62 78.23, 0 63.63 C-3.07 49.46, -3.27 29.98, 0 21.21 C2.96 6.46, 7.17 -0.65, 21.21 0" stroke="none" stroke-width="0" fill="#b2f2bb"></path><path d="M21.21 0 C41.54 0.96, 63.49 0.58, 110.73 0 M21.21 0 C52.61 -0.52, 84.2 -0.68, 110.73 0 M110.73 0 C125.55 -1.46, 130.79 7.07, 131.94 21.21 M110.73 0 C123.02 -1.31, 130 8.07, 131.94 21.21 M131.94 21.21 C130.78 35.77, 130.75 47.36, 131.94 63.63 M131.94 21.21 C131.76 30.14, 132.45 37.95, 131.94 63.63 M131.94 63.63 C133.86 77.66, 124.76 85.63, 110.73 84.84 M131.94 63.63 C131.53 78.74, 126.25 84.36, 110.73 84.84 M110.73 84.84 C92.09 84.3, 72.18 83.89, 21.21 84.84 M110.73 84.84 C89.75 86.03, 66.65 85.4, 21.21 84.84 M21.21 84.84 C8.7 86.22, 0.9 78.47, 0 63.63 M21.21 84.84 C6.15 86.01, -1.49 78.39, 0 63.63 M0 63.63 C1.32 51.78, -1.76 41.48, 0 21.21 M0 63.63 C-0.58 49.18, 0.6 32.92, 0 21.21 M0 21.21 C0.12 8.54, 8.36 -0.63, 21.21 0 M0 21.21 C-0.04 9.2, 8.89 -1.56, 21.21 0" stroke="#4dabf7" stroke-width="2" fill="none"></path></g><g transform="translate(284.07711029052734 319.664794921875) rotate(0 40.359962463378906 12.5)"><text x="40.359962463378906" y="0" font-family="Virgil, Segoe UI Emoji" font-size="20px" fill="#1e1e1e" text-anchor="middle" style="white-space: pre;" direction="ltr" dominant-baseline="text-before-edge">Mounted</text></g><g stroke-linecap="round" transform="translate(260.12860107421875 436.97607421875) rotate(0 65.97235107421875 42.42236328125)"><path d="M21.21 0 C52.57 -1.73, 88.66 1.26, 110.73 0 C126.77 -3.37, 133.32 8.68, 131.94 21.21 C130.02 31.58, 132.16 37.75, 131.94 63.63 C128.89 74.9, 122.35 86.31, 110.73 84.84 C91.25 85.97, 70.38 80.68, 21.21 84.84 C7.19 85.69, -0.93 79.8, 0 63.63 C-0.88 48.19, 1.65 37.77, 0 21.21 C1.48 9.44, 4.64 0.7, 21.21 0" stroke="none" stroke-width="0" fill="#ffc9c9"></path><path d="M21.21 0 C46.45 1.73, 73.23 0.42, 110.73 0 M21.21 0 C48.11 1.03, 75.49 -0.08, 110.73 0 M110.73 0 C126.04 1.26, 130.79 8.61, 131.94 21.21 M110.73 0 C126.77 1.33, 132.19 7.31, 131.94 21.21 M131.94 21.21 C130.42 33.26, 130.6 44.36, 131.94 63.63 M131.94 21.21 C131.89 34.95, 132.5 47.93, 131.94 63.63 M131.94 63.63 C133.86 77.22, 125.02 83.82, 110.73 84.84 M131.94 63.63 C131.7 79.75, 125.45 86.65, 110.73 84.84 M110.73 84.84 C83.05 83.94, 59.78 83.98, 21.21 84.84 M110.73 84.84 C78.88 85.88, 47.8 85.54, 21.21 84.84 M21.21 84.84 C5.64 85.39, 1.47 79.45, 0 63.63 M21.21 84.84 C5.82 87.14, 0.81 75.53, 0 63.63 M0 63.63 C-1.14 45.24, 0.23 31.56, 0 21.21 M0 63.63 C-0.16 46.38, -0.11 30.09, 0 21.21 M0 21.21 C0.29 7.21, 6.17 -1.57, 21.21 0 M0 21.21 C-1.39 8.89, 7.58 1.98, 21.21 0" stroke="#4dabf7" stroke-width="2" fill="none"></path></g><g transform="translate(275.26100158691406 466.8984375) rotate(0 50.83995056152344 12.5)"><text x="50.83995056152344" y="0" font-family="Virgil, Segoe UI Emoji" font-size="20px" fill="#1e1e1e" text-anchor="middle" style="white-space: pre;" direction="ltr" dominant-baseline="text-before-edge">Unmounted</text></g><g stroke-linecap="round"><g transform="translate(321.25213623046875 233.309814453125) rotate(0 1.1256103515625 26.0396728515625)"><path d="M-0.41 -0.75 C-0.23 7.77, 0.74 42.7, 1.21 51.4 M1.58 1.46 C2.1 10.11, 3.35 44.09, 3.37 52.58" stroke="#4dabf7" stroke-width="2" fill="none"></path></g><g transform="translate(321.25213623046875 233.309814453125) rotate(0 1.1256103515625 26.0396728515625)"><path d="M-5.7 29.28 C-4.06 34.89, -1.09 44.16, 3.37 52.58 M-5.7 29.28 C-4.01 34.56, -0.16 41.62, 3.37 52.58" stroke="#4dabf7" stroke-width="2" fill="none"></path></g><g transform="translate(321.25213623046875 233.309814453125) rotate(0 1.1256103515625 26.0396728515625)"><path d="M11.39 28.9 C7.67 34.56, 5.27 43.96, 3.37 52.58 M11.39 28.9 C8.89 34.31, 8.53 41.47, 3.37 52.58" stroke="#4dabf7" stroke-width="2" fill="none"></path></g></g><mask></mask><g stroke-linecap="round"><g transform="translate(324.91131591796875 381.13525390625) rotate(0 -0.28094482421875 25.967529296875)"><path d="M-0.16 0.12 C-0.33 8.83, -1.54 44.24, -1.72 53.05 M-1.71 -0.86 C-1.46 7.47, 0.49 42.84, 0.38 51.52" stroke="#4dabf7" stroke-width="2" fill="none"></path></g><g transform="translate(324.91131591796875 381.13525390625) rotate(0 -0.28094482421875 25.967529296875)"><path d="M-8.78 28.26 C-6.23 31.88, -2.4 38.22, 0.38 51.52 M-8.78 28.26 C-4.33 36.47, -2.43 45.4, 0.38 51.52" stroke="#4dabf7" stroke-width="2" fill="none"></path></g><g transform="translate(324.91131591796875 381.13525390625) rotate(0 -0.28094482421875 25.967529296875)"><path d="M8.31 27.81 C6.79 31.51, 6.56 37.96, 0.38 51.52 M8.31 27.81 C6.13 36.35, 1.39 45.46, 0.38 51.52" stroke="#4dabf7" stroke-width="2" fill="none"></path></g></g><mask></mask><g transform="translate(397.40240478515625 484.81591796875) rotate(0 49.439056396484375 -73.8177490234375)" stroke="none"><path fill="#4dabf7" d="M -0.22,-1.79 Q -0.22,-1.79 2.45,-2.06 5.14,-2.33 7.67,-2.43 10.20,-2.53 12.55,-2.88 14.89,-3.23 16.75,-3.44 18.60,-3.65 20.05,-4.03 21.50,-4.41 22.88,-4.86 24.27,-5.32 25.92,-5.83 27.57,-6.35 30.73,-6.82 33.90,-7.29 38.29,-8.09 42.68,-8.89 47.70,-9.96 52.72,-11.03 57.22,-12.17 61.72,-13.31 64.66,-14.36 67.61,-15.42 69.45,-16.15 71.30,-16.88 72.49,-17.72 73.68,-18.55 75.38,-19.97 77.08,-21.38 78.59,-23.15 80.10,-24.91 81.75,-26.78 83.39,-28.65 84.94,-30.83 86.49,-33.00 88.12,-35.74 89.74,-38.48 91.06,-41.30 92.37,-44.12 93.54,-47.26 94.71,-50.40 95.52,-53.69 96.34,-56.98 96.68,-59.98 97.03,-62.99 97.18,-65.90 97.33,-68.82 97.39,-71.47 97.46,-74.13 97.48,-76.95 97.51,-79.77 96.93,-82.85 96.36,-85.94 95.57,-88.60 94.78,-91.27 93.54,-93.43 92.30,-95.60 91.15,-97.64 89.99,-99.69 88.70,-101.66 87.41,-103.63 86.02,-105.90 84.63,-108.18 82.88,-110.22 81.14,-112.27 78.98,-114.56 76.83,-116.85 74.96,-119.28 73.09,-121.71 71.71,-123.59 70.34,-125.46 68.98,-126.65 67.61,-127.84 66.38,-129.26 65.14,-130.68 64.18,-131.35 63.22,-132.01 61.75,-133.52 60.29,-135.02 58.99,-135.33 57.69,-135.63 56.54,-136.09 55.40,-136.56 54.13,-137.09 52.87,-137.62 51.17,-138.58 49.48,-139.53 47.86,-140.17 46.24,-140.80 44.89,-141.32 43.54,-141.84 42.01,-142.39 40.48,-142.94 39.22,-143.42 37.96,-143.89 36.28,-144.01 34.60,-144.13 33.56,-144.48 32.53,-144.83 31.14,-144.80 29.75,-144.78 28.66,-144.73 27.57,-144.69 26.21,-144.64 24.84,-144.60 23.65,-144.56 22.45,-144.52 20.54,-144.52 18.64,-144.52 17.11,-144.49 15.58,-144.47 14.25,-144.44 12.92,-144.41 10.42,-144.39 7.92,-144.36 7.39,-144.44 6.87,-144.53 6.40,-144.78 5.94,-145.03 5.57,-145.41 5.21,-145.79 4.99,-146.27 4.76,-146.76 4.71,-147.28 4.65,-147.81 4.76,-148.32 4.88,-148.84 5.15,-149.30 5.42,-149.75 5.83,-150.09 6.23,-150.43 6.72,-150.63 7.21,-150.83 7.74,-150.85 8.27,-150.88 8.78,-150.74 9.29,-150.60 9.73,-150.30 10.17,-150.01 10.49,-149.58 10.81,-149.16 10.98,-148.66 11.15,-148.16 11.15,-147.63 11.15,-147.10 10.98,-146.60 10.81,-146.10 10.49,-145.68 10.17,-145.25 9.73,-144.96 9.29,-144.66 8.78,-144.52 8.27,-144.38 7.74,-144.41 7.21,-144.44 6.72,-144.63 6.23,-144.83 5.83,-145.17 5.42,-145.51 5.15,-145.97 4.88,-146.42 4.76,-146.94 4.65,-147.45 4.71,-147.98 4.76,-148.51 4.99,-148.99 5.21,-149.47 5.57,-149.85 5.94,-150.24 6.41,-150.48 6.87,-150.73 7.40,-150.82 7.92,-150.90 7.92,-150.90 7.92,-150.90 10.42,-150.87 12.92,-150.85 14.25,-150.82 15.58,-150.79 17.11,-150.77 18.64,-150.74 20.54,-150.74 22.45,-150.75 23.65,-150.70 24.85,-150.66 26.23,-150.61 27.61,-150.56 28.81,-150.49 30.01,-150.42 31.22,-150.25 32.44,-150.09 33.53,-149.82 34.62,-149.56 35.92,-149.16 37.22,-148.76 38.46,-148.44 39.70,-148.11 40.82,-147.60 41.94,-147.08 43.58,-146.52 45.23,-145.96 46.46,-145.41 47.69,-144.87 49.63,-144.24 51.56,-143.61 53.18,-142.87 54.81,-142.12 56.08,-141.56 57.34,-141.00 59.39,-139.99 61.43,-138.99 62.50,-138.24 63.56,-137.49 64.51,-136.07 65.46,-134.64 66.47,-133.62 67.49,-132.60 68.51,-131.25 69.52,-129.89 70.99,-128.46 72.45,-127.02 73.81,-125.17 75.17,-123.31 76.96,-120.98 78.75,-118.64 80.94,-116.31 83.14,-113.97 85.00,-111.76 86.86,-109.56 88.24,-107.31 89.61,-105.06 90.94,-103.02 92.27,-100.98 93.44,-98.94 94.60,-96.89 95.95,-94.46 97.30,-92.03 98.12,-89.22 98.95,-86.42 99.55,-83.08 100.15,-79.75 100.13,-76.91 100.10,-74.07 100.04,-71.37 99.97,-68.68 99.82,-65.68 99.67,-62.68 99.30,-59.51 98.94,-56.33 98.08,-52.90 97.23,-49.46 96.03,-46.22 94.84,-42.97 93.47,-40.03 92.11,-37.09 90.45,-34.24 88.78,-31.38 87.17,-29.08 85.56,-26.78 83.96,-24.90 82.37,-23.01 80.73,-21.03 79.09,-19.05 77.23,-17.41 75.37,-15.78 73.87,-14.97 72.36,-14.17 70.47,-13.45 68.59,-12.73 65.53,-11.59 62.46,-10.46 57.92,-9.25 53.38,-8.04 48.34,-6.88 43.30,-5.72 38.89,-4.80 34.48,-3.88 31.57,-3.32 28.65,-2.75 26.96,-2.25 25.27,-1.75 23.73,-1.39 22.20,-1.03 20.55,-0.76 18.90,-0.49 17.14,-0.37 15.37,-0.25 12.88,0.17 10.39,0.61 7.97,0.80 5.56,0.98 2.89,1.39 0.22,1.79 0.00,1.79 -0.21,1.79 -0.42,1.74 -0.63,1.69 -0.82,1.59 -1.02,1.49 -1.18,1.35 -1.35,1.20 -1.47,1.02 -1.60,0.84 -1.67,0.64 -1.75,0.44 -1.78,0.22 -1.81,0.00 -1.78,-0.20 -1.76,-0.42 -1.68,-0.63 -1.60,-0.83 -1.48,-1.01 -1.36,-1.19 -1.19,-1.34 -1.03,-1.48 -0.84,-1.58 -0.64,-1.69 -0.43,-1.74 -0.22,-1.79 -0.22,-1.79 L -0.22,-1.79 Z"></path></g><g transform="translate(418.44989013671875 314.96435546875) rotate(0 -12.477386474609375 19.476806640625)" stroke="none"><path fill="#4dabf7" d="M 1.47,1.49 Q 1.47,1.49 -0.02,2.87 -1.53,4.24 -3.81,6.23 -6.09,8.22 -7.97,10.13 -9.86,12.03 -11.17,13.61 -12.48,15.19 -13.20,16.41 -13.92,17.62 -14.88,18.62 -15.84,19.62 -17.12,20.59 -18.40,21.55 -19.70,22.47 -21.00,23.39 -19.64,24.38 -18.27,25.38 -16.81,26.33 -15.36,27.28 -13.96,28.22 -12.55,29.17 -10.56,29.81 -8.56,30.46 -7.54,30.94 -6.52,31.42 -4.39,32.59 -2.27,33.76 -0.24,34.95 1.77,36.15 2.15,36.41 2.53,36.67 2.80,37.04 3.08,37.42 3.22,37.86 3.36,38.29 3.35,38.76 3.35,39.22 3.19,39.65 3.04,40.09 2.75,40.45 2.47,40.81 2.08,41.07 1.70,41.32 1.25,41.44 0.81,41.56 0.35,41.52 -0.10,41.49 -0.53,41.32 -0.96,41.14 -1.30,40.84 -1.65,40.53 -1.88,40.13 -2.12,39.73 -2.21,39.28 -2.30,38.83 -2.24,38.37 -2.19,37.92 -1.99,37.50 -1.79,37.08 -1.47,36.75 -1.15,36.42 -0.73,36.21 -0.32,36.00 0.12,35.93 0.58,35.87 1.03,35.95 1.49,36.03 1.89,36.25 2.30,36.47 2.61,36.81 2.92,37.15 3.11,37.57 3.30,37.99 3.34,38.45 3.38,38.91 3.28,39.36 3.17,39.81 2.93,40.20 2.69,40.59 2.33,40.89 1.97,41.18 1.54,41.34 1.11,41.51 0.65,41.53 0.19,41.55 -0.24,41.42 -0.69,41.29 -0.69,41.29 -0.69,41.29 -3.25,39.69 -5.81,38.08 -6.67,37.38 -7.53,36.68 -9.00,35.99 -10.47,35.30 -11.40,34.65 -12.32,33.99 -13.64,33.43 -14.96,32.88 -16.36,31.98 -17.76,31.08 -19.19,30.21 -20.61,29.34 -22.31,28.36 -24.01,27.38 -25.08,25.03 -26.16,22.67 -24.74,21.33 -23.32,19.99 -22.02,19.14 -20.72,18.28 -18.74,16.97 -16.77,15.66 -15.84,14.45 -14.92,13.24 -13.58,11.51 -12.25,9.77 -10.37,7.69 -8.49,5.62 -6.37,3.55 -4.26,1.49 -2.87,-0.00 -1.47,-1.49 -1.27,-1.64 -1.07,-1.80 -0.84,-1.90 -0.61,-2.00 -0.36,-2.05 -0.11,-2.09 0.13,-2.08 0.38,-2.06 0.63,-1.98 0.87,-1.91 1.08,-1.77 1.30,-1.64 1.48,-1.46 1.66,-1.28 1.79,-1.06 1.92,-0.85 1.99,-0.60 2.06,-0.36 2.08,-0.11 2.09,0.13 2.04,0.38 2.00,0.63 1.89,0.86 1.79,1.09 1.63,1.29 1.47,1.49 1.47,1.49 L 1.47,1.49 Z"></path></g><g transform="translate(25.83599853515625 246.91552734375) rotate(0 134.33984375 37.5)"><text x="0" y="0" font-family="Virgil, Segoe UI Emoji" font-size="20px" fill="#2f9e44" text-anchor="start" style="white-space: pre;" direction="ltr" dominant-baseline="text-before-edge">When mounted in React/Vue</text><text x="0" y="25" font-family="Virgil, Segoe UI Emoji" font-size="20px" fill="#2f9e44" text-anchor="start" style="white-space: pre;" direction="ltr" dominant-baseline="text-before-edge">or subscription.start in</text><text x="0" y="50" font-family="Virgil, Segoe UI Emoji" font-size="20px" fill="#2f9e44" text-anchor="start" style="white-space: pre;" direction="ltr" dominant-baseline="text-before-edge">Vanilla JS</text></g><g transform="translate(31.65765380859375 93.912353515625) rotate(0 96.9898910522461 25)"><text x="0" y="0" font-family="Virgil, Segoe UI Emoji" font-size="20px" fill="#2f9e44" text-anchor="start" style="white-space: pre;" direction="ltr" dominant-baseline="text-before-edge">When molecule value</text><text x="0" y="25" font-family="Virgil, Segoe UI Emoji" font-size="20px" fill="#2f9e44" text-anchor="start" style="white-space: pre;" direction="ltr" dominant-baseline="text-before-edge">requested</text></g><g transform="translate(10 390.850830078125) rotate(0 144.68984985351562 37.5)"><text x="0" y="0" font-family="Virgil, Segoe UI Emoji" font-size="20px" fill="#ff8787" text-anchor="start" style="white-space: pre;" direction="ltr" dominant-baseline="text-before-edge">When unmounted in React/Vue</text><text x="0" y="25" font-family="Virgil, Segoe UI Emoji" font-size="20px" fill="#ff8787" text-anchor="start" style="white-space: pre;" direction="ltr" dominant-baseline="text-before-edge">or subscription.stop in</text><text x="0" y="50" font-family="Virgil, Segoe UI Emoji" font-size="20px" fill="#ff8787" text-anchor="start" style="white-space: pre;" direction="ltr" dominant-baseline="text-before-edge">Vanilla JS</text></g><g transform="translate(512.0655517578125 389.491943359375) rotate(0 113.24986267089844 50)"><text x="0" y="0" font-family="Virgil, Segoe UI Emoji" font-size="20px" fill="#2f9e44" text-anchor="start" style="white-space: pre;" direction="ltr" dominant-baseline="text-before-edge">When re-used in React</text><text x="0" y="25" font-family="Virgil, Segoe UI Emoji" font-size="20px" fill="#2f9e44" text-anchor="start" style="white-space: pre;" direction="ltr" dominant-baseline="text-before-edge">or subscription.start in</text><text x="0" y="50" font-family="Virgil, Segoe UI Emoji" font-size="20px" fill="#2f9e44" text-anchor="start" style="white-space: pre;" direction="ltr" dominant-baseline="text-before-edge">Vanilla JS</text><text x="0" y="75" font-family="Virgil, Segoe UI Emoji" font-size="20px" fill="#2f9e44" text-anchor="start" style="white-space: pre;" direction="ltr" dominant-baseline="text-before-edge"></text></g><g stroke-linecap="round" transform="translate(252.98870849609375 10) rotate(0 67.32876586914062 36.6690673828125)"><path d="M18.33 0 C41.77 0.9, 72.41 -3.04, 116.32 0 C129.3 -0.99, 132.8 8.5, 134.66 18.33 C134.86 28.39, 136.65 40.82, 134.66 55 C131.49 66.31, 130.8 75.57, 116.32 73.34 C95.85 70.29, 72.28 74.15, 18.33 73.34 C3.56 75.07, 1.43 65.96, 0 55 C3.21 41.47, -0.48 26.13, 0 18.33 C0.1 7.2, 4.65 1.43, 18.33 0" stroke="none" stroke-width="0" fill="#e9ecef"></path><path d="M18.33 0 C42.56 -0.67, 67.23 2.02, 116.32 0 M116.32 0 C128.92 1.13, 135.17 5.46, 134.66 18.33 M134.66 18.33 C133.12 25.27, 134.72 35.84, 134.66 55 M134.66 55 C136.4 69.04, 129.52 73.68, 116.32 73.34 M116.32 73.34 C89.84 71.55, 60.67 71.61, 18.33 73.34 M18.33 73.34 C6.1 74.49, 0.13 66.7, 0 55 M0 55 C1.74 49.4, 0.73 39.24, 0 18.33 M0 18.33 C1.62 7.24, 4.63 1.37, 18.33 0" stroke="#4dabf7" stroke-width="1.5" fill="none" stroke-dasharray="8 9"></path></g><g transform="translate(291.9675064086914 34.1690673828125) rotate(0 28.34996795654297 12.5)"><text x="28.34996795654297" y="0" font-family="Virgil, Segoe UI Emoji" font-size="20px" fill="#1e1e1e" text-anchor="middle" style="white-space: pre;" direction="ltr" dominant-baseline="text-before-edge">Start</text></g><g stroke-linecap="round" transform="translate(254.46270751953125 587.852783203125) rotate(0 67.32876586914062 36.6690673828125)"><path d="M18.33 0 C43.69 -0.2, 61.29 -2.04, 116.32 0 C130.07 3.38, 134.78 9.58, 134.66 18.33 C136.93 28.32, 131.29 35.66, 134.66 55 C132.83 66.38, 127.93 73.35, 116.32 73.34 C87.41 74.75, 61.02 74.21, 18.33 73.34 C3.18 71.55, -2.64 65.4, 0 55 C0.59 40.48, -1.91 27.95, 0 18.33 C1.53 4.6, 5.72 -0.05, 18.33 0" stroke="none" stroke-width="0" fill="#e9ecef"></path><path d="M18.33 0 C55.6 -0.29, 93.7 0.01, 116.32 0 M116.32 0 C128.16 -0.44, 133.85 5.59, 134.66 18.33 M134.66 18.33 C134.36 29.72, 134.6 43.91, 134.66 55 M134.66 55 C134.92 66.2, 127.04 71.36, 116.32 73.34 M116.32 73.34 C95.29 71.1, 72.51 72.22, 18.33 73.34 M18.33 73.34 C6.57 74.59, -0.1 67.54, 0 55 M0 55 C0.42 44.57, 1.14 28.55, 0 18.33 M0 18.33 C-1.48 6.46, 5.48 0.07, 18.33 0" stroke="#4dabf7" stroke-width="1.5" fill="none" stroke-dasharray="8 9"></path></g><g transform="translate(277.2515182495117 599.5218505859375) rotate(0 44.539955139160156 25)"><text x="44.539955139160156" y="0" font-family="Virgil, Segoe UI Emoji" font-size="20px" fill="#1e1e1e" text-anchor="middle" style="white-space: pre;" direction="ltr" dominant-baseline="text-before-edge">Garbage</text><text x="44.539955139160156" y="25" font-family="Virgil, Segoe UI Emoji" font-size="20px" fill="#1e1e1e" text-anchor="middle" style="white-space: pre;" direction="ltr" dominant-baseline="text-before-edge">Collected</text></g><g stroke-linecap="round"><g transform="translate(323.1058171132702 87.07080078125) rotate(0 0.19148281760351438 26.44140625)"><path d="M-1.1 -0.41 C-1.2 8.25, -0.12 42.79, 0.14 51.8 M0.52 -1.66 C0.18 7.11, -0.8 43.87, -0.94 52.77" stroke="#4dabf7" stroke-width="2" fill="none"></path></g><g transform="translate(323.1058171132702 87.07080078125) rotate(0 0.19148281760351438 26.44140625)"><path d="M-8.96 29.1 C-6.77 37.29, -5 46.28, -0.94 52.77 M-8.96 29.1 C-6.28 38.25, -2.29 46.32, -0.94 52.77" stroke="#4dabf7" stroke-width="2" fill="none"></path></g><g transform="translate(323.1058171132702 87.07080078125) rotate(0 0.19148281760351438 26.44140625)"><path d="M8.13 29.48 C4.16 37.38, -0.23 46.23, -0.94 52.77 M8.13 29.48 C4.54 38.58, 2.24 46.51, -0.94 52.77" stroke="#4dabf7" stroke-width="2" fill="none"></path></g></g><mask></mask><g stroke-linecap="round"><g transform="translate(321.0538501458707 525.68359375) rotate(0 0.17749303639448044 25.5618896484375)"><path d="M0.72 0.77 C0.62 9.32, -0.04 42.49, -0.04 50.73 M-0.36 0.13 C-0.7 8.9, -1.28 43.58, -1.19 52.07" stroke="#4dabf7" stroke-width="2" fill="none"></path></g><g transform="translate(321.0538501458707 525.68359375) rotate(0 0.17749303639448044 25.5618896484375)"><path d="M-9.61 28.53 C-5.51 36, -4.52 45.46, -1.19 52.07 M-9.61 28.53 C-8.07 33.64, -6.51 38.44, -1.19 52.07" stroke="#4dabf7" stroke-width="2" fill="none"></path></g><g transform="translate(321.0538501458707 525.68359375) rotate(0 0.17749303639448044 25.5618896484375)"><path d="M7.5 28.62 C5.65 36.17, 0.7 45.59, -1.19 52.07 M7.5 28.62 C5.19 33.83, 2.9 38.61, -1.19 52.07" stroke="#4dabf7" stroke-width="2" fill="none"></path></g></g><mask></mask></svg>