<?xml version="1.0" standalone="no"?>
<!DOCTYPE svg PUBLIC "-//W3C//DTD SVG 20010904//EN"
 "http://www.w3.org/TR/2001/REC-SVG-20010904/DTD/svg10.dtd">
<svg version="1.0" xmlns="http://www.w3.org/2000/svg"
 width="520.000000pt" height="520.000000pt" viewBox="0 0 520.000000 520.000000"
 preserveAspectRatio="xMidYMid meet">
<metadata>
Created by potrace 1.14, written by Peter Selinger 2001-2017
</metadata>
<g transform="translate(0.000000,520.000000) scale(0.100000,-0.100000)"
fill="#000000" stroke="none">
<path d="M978 5125 c-2 -3 -62 -7 -134 -9 -143 -5 -160 -7 -254 -37 -65 -21
-173 -73 -198 -96 -7 -7 -17 -13 -22 -13 -25 0 -220 -220 -220 -249 0 -4 -6
-13 -13 -19 -6 -7 -12 -16 -13 -20 0 -4 -9 -25 -19 -47 -10 -22 -28 -78 -41
-125 l-22 -85 -1 -1850 c0 -1170 3 -1868 10 -1900 5 -27 11 -59 13 -70 19 -89
88 -230 151 -304 133 -157 275 -243 475 -286 55 -12 362 -14 1910 -14 1782 -1
1848 0 1932 19 47 10 95 23 105 28 122 59 160 79 171 90 7 6 17 12 21 12 16 0
157 147 188 195 18 28 37 55 42 61 4 6 12 21 16 35 4 13 11 29 15 34 10 14 39
105 56 173 11 47 13 392 13 1902 0 1165 -3 1863 -10 1895 -5 28 -11 59 -13 70
-2 11 -12 40 -21 65 -9 25 -19 54 -22 65 -3 11 -11 27 -17 35 -7 8 -17 26 -24
40 -45 95 -176 227 -290 292 -64 37 -172 77 -252 94 -29 6 -156 15 -205 14
-27 -1 -86 0 -130 0 -44 1 -87 1 -95 1 -8 0 -67 0 -130 0 -63 0 -122 0 -130 0
-8 0 -58 -1 -110 0 -52 0 -102 0 -110 0 -8 0 -67 0 -130 0 -63 0 -122 0 -130
0 -8 0 -58 -1 -110 0 -52 0 -102 0 -110 0 -8 0 -67 0 -130 0 -63 0 -122 0
-130 0 -8 0 -58 -1 -110 0 -52 0 -102 0 -110 0 -8 0 -67 0 -130 0 -63 0 -122
0 -130 0 -8 0 -58 -1 -110 0 -52 0 -102 0 -110 0 -8 0 -67 0 -130 0 -63 0
-122 0 -130 0 -8 0 -58 -1 -110 0 -52 0 -102 0 -110 0 -8 0 -67 0 -130 0 -63
0 -122 0 -130 0 -8 0 -58 -1 -110 0 -120 0 -99 0 -212 -1 -53 -1 -101 1 -106
4 -5 3 -11 3 -14 1z"/>
</g>
</svg>
